{"title":"R.I.P.D. Cam 2013 x264.mp4","uid":8757510,"size":546460491,"categoryP":"video","categoryS":"movies","magnet":"?xt=urn:btih:19459919427030856da504313e467f3fbed82792&amp;dn=R.I.P.D.+Cam+2013+x264.mp4&amp;tr=udp%3A%2F%2Ftracker.openbittorrent.com%3A80&amp;tr=udp%3A%2F%2Fopen.demonii.com%3A1337&amp;tr=udp%3A%2F%2Ftracker.coppersurfer.tk%3A6969&amp;tr=udp%3A%2F%2Fexodus.desync.com%3A6969","seeders":1,"leechers":0,"uploader":"globeplus","files":-1,"time":1375178091,"description":"R.I.P.D. Cam 2013 x264.mp4\n\nGeneral INFO :\n\nFormat                                   : MPEG-4\nCodec ID                                 : M4V \nFile size                                : 521 MiB\nDuration                                 : 1h 26mn\nOverall bit rate mode                    : Variable\nOverall bit rate                         : 846 Kbps\n\n\nVideo\n\nID                                       : 1\nFormat                                   : AVC\nFormat/Info                              : Advanced Video Codec\nFormat profile                           : &lt;a class=&quot;__cf_email__&quot; href=&quot;/cdn-cgi/l/email-protection&quot; data-cfemail=&quot;347c5d535c7478071a05&quot;&gt;[email&amp;#160;protected]&lt;/a&gt;&lt;script cf-hash='f9e31' type=&quot;text/javascript&quot;&gt;\n/* &lt;![CDATA[ */!function(){try{var t=&quot;currentScript&quot;in document?document.currentScript:function(){for(var t=document.getElementsByTagName(&quot;script&quot;),e=t.length;e--;)if(t[e].getAttribute(&quot;cf-hash&quot;))return t[e]}();if(t&amp;&amp;t.previousSibling){var e,r,n,i,c=t.previousSibling,a=c.getAttribute(&quot;data-cfemail&quot;);if(a){for(e=&quot;&quot;,r=parseInt(a.substr(0,2),16),n=2;a.length-n;n+=2)i=parseInt(a.substr(n,2),16)^r,e+=String.fromCharCode(i);e=document.createTextNode(e),c.parentNode.replaceChild(e,c)}}}catch(u){}}();/* ]]&gt; */&lt;/script&gt;\nFormat settings, CABAC                   : Yes\nFormat settings, ReFrames                : 2 frames\nCodec ID                                 : avc1\nCodec ID/Info                            : Advanced Video Coding\nDuration                                 : 1h 26mn\nBit rate mode                            : Variable\nBit rate                                 : 796 Kbps\nMaximum bit rate                         : 2 879 Kbps\nWidth                                    : 896 pixels\nHeight                                   : 458 pixels\nDisplay aspect ratio                     : 1.956\nFrame rate mode                          : Constant\nFrame rate                               : 29.970 fps\nColor space                              : YUV\nChroma subsampling                       : 4:2:0\nBit depth                                : 8 bits\nScan type                                : Progressive\nBits/(Pixel*Frame)                       : 0.065\nStream size                              : 490 MiB (94%)\nWriting library                          : x264 core 120 r2151 a3f4407\nLanguage                                 : English\n\n\nAudio\n\nID                                       : 2\nFormat                                   : AAC\nFormat/Info                              : Advanced Audio Codec\nFormat profile                           : HE-AAC / LC\nCodec ID                                 : 40\nDuration                                 : 1h 26mn\nBit rate mode                            : Variable\nBit rate                                 : 48.0 Kbps\nMaximum bit rate                         : 52.4 Kbps\nChannel(s)                               : 2 channels\nChannel positions                        : Front: L R\nSampling rate                            : 48.0 KHz / 24.0 KHz\nCompression mode                         : Lossy\nStream size                              : 29.6 MiB (6%)\nLanguage                                 : English\n\n\nPlot\n\nBoston Police Department Detectives Nick Walker (Ryan Reynolds) and Bobby Hayes (Kevin Bacon) steal a chest full of gold found during a drug bust, and Nick buries his share of the gold in his backyard, intending to use it to create a better life for himself and his wife, Julia (Stephanie Szostak). However, he regrets his decision and informs Hayes he intends to return the gold. Later, during a raid on a warehouse, Nick and Hayes get into a shootout with criminals, and Hayes kills Nick to prevent him from returning the gold, framing one of the criminals for the murder.\n\nNick awakens in the office of Mildred Proctor (Mary-Louise Parker), director of the Rest In Peace Department (R.I.P.D.), an agency that recruits deceased police officers to patrol the afterlife and capture &quot;Deados&quot;, spirits that refuse to cross over and return to Earth as monstrous ghosts. Nick agrees to join the R.I.P.D. after Proctor promises to help him reunite with Julia and meets his new partner, Roy Pulsipher (Jeff Bridges), an ex-U.S. Marshal who lived in the 1800's.\n\nNick and Roy return to Earth to attend Nick's funeral, where Nick learns R.I.P.D. officers are assigned avatars, which is how humans perceive them. Nick's is an elderly Chinese man, Jerry Chen (J. Hong) and Roy's is an attractive Russian woman, Opal Pavlenko (Marisa Miller ). After failing to communicate with Julia, Nick accompanies Roy to the apartment of a suspect, Stanley Nawlicki (Robert Knepper), who tries to escape and is killed by the duo. Pieces of gold identical to the ones Nick stole are found in Nawlicki's possessions and sent to Internal Affairs for analysis.\n\n\n\n\n* enjoy ...\n\n\n","torrent":{"xt":"urn:btih:19459919427030856da504313e467f3fbed82792","amp;dn":"R.I.P.D.+Cam+2013+x264.mp4","amp;tr":["udp%3A%2F%2Ftracker.openbittorrent.com%3A80","udp%3A%2F%2Fopen.demonii.com%3A1337","udp%3A%2F%2Ftracker.coppersurfer.tk%3A6969","udp%3A%2F%2Fexodus.desync.com%3A6969"],"infoHash":"19459919427030856da504313e467f3fbed82792","infoHashBuffer":{"type":"Buffer","data":[25,69,153,25,66,112,48,133,109,165,4,49,62,70,127,63,190,216,39,146]},"announce":[],"urlList":[]}}